<?xml version="1.0" standalone="no"?>
<!DOCTYPE svg PUBLIC "-//W3C//DTD SVG 20010904//EN"
 "http://www.w3.org/TR/2001/REC-SVG-20010904/DTD/svg10.dtd">
<svg version="1.0" xmlns="http://www.w3.org/2000/svg"
 width="460.000000pt" height="460.000000pt" viewBox="0 0 460.000000 460.000000"
 preserveAspectRatio="xMidYMid meet">
<metadata>
Created by potrace 1.11, written by Peter Selinger 2001-2013
</metadata>
<g transform="translate(0.000000,460.000000) scale(0.100000,-0.100000)"
fill="#000000" stroke="none">
<path d="M0 2300 l0 -2300 2300 0 2300 0 0 2300 0 2300 -2300 0 -2300 0 0
-2300z m2575 1320 c101 -49 170 -110 233 -204 58 -87 91 -175 99 -269 l6 -68
41 8 c23 4 95 8 161 8 140 0 213 -20 316 -87 352 -227 383 -724 63 -989 -51
-43 -169 -109 -194 -109 -5 0 3 -21 19 -47 16 -27 42 -84 57 -128 34 -101 39
-254 10 -350 -51 -170 -166 -310 -316 -384 -140 -68 -255 -84 -398 -55 -117
24 -211 74 -299 158 l-75 71 -67 -65 c-145 -143 -347 -205 -542 -166 -412 83
-619 522 -423 896 16 30 30 57 32 60 1 3 -29 20 -66 38 -177 85 -297 242 -338
442 -58 289 119 594 404 692 55 19 88 23 187 23 66 0 138 -4 161 -8 l41 -8 6
68 c8 94 41 182 99 269 80 120 199 207 337 248 94 27 91 30 91 -79 0 -86 -2
-95 -19 -95 -10 0 -50 -16 -88 -35 -163 -82 -258 -255 -234 -430 8 -55 7 -56
-20 -71 -16 -8 -53 -34 -82 -58 l-53 -43 -38 19 c-21 11 -70 26 -109 34 -138
29 -276 -14 -380 -117 -237 -237 -120 -638 208 -712 l57 -13 32 -97 33 -96
-34 -33 c-19 -18 -51 -67 -71 -107 -36 -73 -37 -78 -37 -185 0 -104 2 -115 31
-176 110 -230 372 -315 594 -194 l53 29 -58 17 c-82 24 -165 59 -165 69 0 6
85 156 94 166 1 1 38 -11 83 -27 45 -16 104 -32 131 -36 50 -6 50 -6 61 27 6
19 13 53 17 77 7 42 6 42 -24 42 -49 0 -181 46 -251 87 -158 93 -266 231 -322
413 -19 60 -24 98 -24 190 0 132 21 215 83 335 50 96 182 227 277 277 75 38
192 78 231 78 24 0 24 -2 24 -90 l0 -89 -42 -11 c-85 -20 -183 -78 -247 -145
-202 -210 -193 -532 19 -729 102 -94 213 -138 350 -138 137 0 248 44 350 138
212 197 221 519 19 729 -66 69 -159 124 -246 146 l-53 13 0 88 0 88 29 0 c44
0 158 -38 236 -78 95 -50 227 -181 277 -277 63 -123 83 -203 82 -340 -1 -100
-5 -133 -26 -197 -40 -120 -92 -204 -182 -293 -88 -87 -200 -152 -306 -179
-60 -14 -61 -16 -74 -115 l-7 -54 49 6 c43 5 150 37 203 61 13 6 27 -10 63
-72 25 -43 46 -83 46 -89 0 -12 -78 -46 -166 -72 l-59 -17 45 -27 c56 -32 148
-57 215 -57 255 1 460 242 417 491 -14 80 -55 168 -105 221 l-34 37 32 98 33
97 57 13 c81 19 169 68 220 125 156 173 150 425 -12 587 -104 103 -242 146
-380 117 -39 -8 -88 -23 -109 -34 l-38 -19 -53 43 c-29 24 -66 50 -82 58 -27
15 -28 16 -20 71 27 199 -96 389 -296 457 l-50 17 -3 94 -3 95 63 -14 c35 -8
99 -32 143 -54z"/>
</g>
</svg>
